<?xml version="1.0" encoding="utf-8"?>
<!-- Generator: Adobe Illustrator 19.2.1, SVG Export Plug-In . SVG Version: 6.00 Build 0)  -->
<svg version="1.1" baseProfile="tiny" id="Layer_1" xmlns="http://www.w3.org/2000/svg" xmlns:xlink="http://www.w3.org/1999/xlink"
	 x="0px" y="0px" viewBox="0 0 512 512" xml:space="preserve">
<path d="M132.131,45.879c0-6.117,0.612-9.787,11.011-9.787h140.083c24.469,0,37.927,20.798,47.714,59.948l7.952,31.198h23.857
	C367.031,38.538,370.701,0,370.701,0s-59.948,6.729-95.428,6.729H96.04L0,3.67v25.692l32.421,6.117
	c22.634,4.282,28.139,9.176,29.974,29.974c0,0,1.835,61.172,1.835,162.105s-1.835,161.494-1.835,161.494
	c0,18.352-7.341,25.08-29.974,29.362L0,424.532v25.692l96.04-3.059h160.27c36.091,0,119.897,3.059,119.897,3.059
	c1.835-22.022,14.07-121.732,15.905-132.743h-22.634l-23.857,54.443c-18.963,42.82-46.491,45.879-77.076,45.879h-91.146
	c-30.586,0-45.267-12.234-45.267-38.538V239.793c0,0,67.901,0,89.923,1.835c17.128,1.223,27.527,6.117,33.033,29.974l7.341,31.809
	h26.304l-1.835-80.135l3.67-80.747h-26.304l-8.564,35.48c-5.505,23.245-9.176,27.527-33.033,29.974
	c-31.198,3.059-90.534,2.447-90.534,2.447V45.879z M938.375,549.323c-18.352,0-23.857-8.564-26.304-20.798l-9.176-47.714
	l-25.692,1.223c-3.67,28.139-9.176,59.948-16.516,85.029c17.128,11.623,37.927,17.128,66.066,17.128
	c41.597,0,103.992-11.623,160.27-144.365l97.875-231.841c7.952-18.352,10.399-20.798,34.256-29.974l12.846-4.894v-21.41
	l-58.113,3.059l-61.784-3.059v21.41l15.905,4.894c15.905,4.894,23.245,10.399,23.245,23.245c0,6.729-1.835,9.787-5.505,18.352
	c-6.729,17.128-50.161,124.179-71.571,170.669c-26.916-67.289-63.619-167.611-67.901-182.292c-1.223-3.67-1.835-6.729-1.835-9.787
	c0-9.787,6.729-17.74,21.41-20.798l20.187-4.282v-21.41l-83.805,3.059l-66.677-3.059v21.41l11.011,3.67
	c15.905,5.505,17.74,7.341,28.139,30.586c42.209,95.428,89.311,217.16,104.604,256.922
	C1006.276,530.971,967.126,549.323,938.375,549.323L938.375,549.323z M688.183,351.738l-23.245,0.612
	c3.059,29.362,3.67,58.725,0,85.641c0,0,46.491,17.128,93.593,17.128c63.619,0,114.391-30.586,114.391-89.923
	c0-103.992-154.153-87.476-154.153-157.212c0-28.751,26.304-39.762,53.219-39.762c22.634,0,40.985,7.952,44.655,19.575
	l15.293,45.879l22.634-1.223c1.223-24.469,3.059-52.608,6.729-75.241c-19.575-8.564-60.56-13.458-86.252-13.458
	c-59.948,0-108.274,26.304-108.274,85.029c0,102.769,150.483,80.135,150.483,157.212c0,25.692-16.516,45.267-53.219,45.267
	c-34.868,0-51.996-17.74-58.725-35.48L688.183,351.738z M495.492,63.007c-12.846,74.018-48.326,100.933-91.758,105.827v21.41h54.443
	v187.797c0,52.608,34.868,78.3,81.359,78.3c36.091,0,73.406-15.293,86.252-47.102l-12.846-16.516
	c-6.117,10.399-25.692,25.692-50.161,25.692c-26.916,0-41.597-18.352-41.597-64.842V187.797l90.534,6.729l4.894-41.597l-95.428,3.67
	V63.007H495.492z"/>
</svg>
