<?xml version="1.0" encoding="utf-8"?>
<!-- Generator: Adobe Illustrator 19.2.1, SVG Export Plug-In . SVG Version: 6.00 Build 0)  -->
<svg version="1.1" baseProfile="tiny" id="Layer_1" xmlns="http://www.w3.org/2000/svg" xmlns:xlink="http://www.w3.org/1999/xlink"
	 x="0px" y="0px" viewBox="0 0 512 512" xml:space="preserve">
<path id="White_2_" d="M423.274,0H24.726C11.068,0,0,11.068,0,24.726v398.548C0,436.929,11.068,448,24.726,448h214.565V274.511
	h-58.383v-67.612h58.383v-49.862c0-57.865,35.342-89.373,86.961-89.373c24.726,0,45.977,1.841,52.17,2.664V130.8l-35.801,0.016
	c-28.073,0-33.509,13.34-33.509,32.916v43.167h66.952l-8.717,67.612h-58.235V448h114.162C436.929,448,448,436.929,448,423.274
	V24.726C448,11.068,436.929,0,423.274,0z"/>
</svg>
