<?xml version="1.0" encoding="utf-8"?>
<!-- Generator: Adobe Illustrator 19.2.1, SVG Export Plug-In . SVG Version: 6.00 Build 0)  -->
<svg version="1.1" baseProfile="tiny" id="Layer_1" xmlns="http://www.w3.org/2000/svg" xmlns:xlink="http://www.w3.org/1999/xlink"
	 x="0px" y="0px" viewBox="0 0 512 512" xml:space="preserve">
<g>
	<path fill="#010101" d="M224,40.36c59.811,0,66.895,0.228,90.515,1.306c21.84,0.997,33.701,4.645,41.594,7.713
		c10.456,4.063,17.918,8.918,25.756,16.756c7.838,7.838,12.693,15.3,16.756,25.756c3.068,7.893,6.717,19.754,7.713,41.593
		c1.078,23.62,1.306,30.705,1.306,90.515s-0.228,66.895-1.306,90.515c-0.996,21.84-4.645,33.701-7.713,41.594
		c-4.063,10.456-8.918,17.918-16.756,25.756c-7.839,7.838-15.301,12.693-25.756,16.756c-7.893,3.068-19.754,6.716-41.594,7.713
		c-23.617,1.078-30.7,1.306-90.515,1.306s-66.898-0.228-90.515-1.306c-21.84-0.996-33.701-4.645-41.594-7.713
		c-10.456-4.063-17.918-8.918-25.756-16.756c-7.838-7.838-12.693-15.3-16.756-25.756c-3.068-7.893-6.716-19.754-7.713-41.593
		c-1.078-23.62-1.306-30.705-1.306-90.515s0.228-66.895,1.306-90.515c0.997-21.84,4.645-33.701,7.713-41.594
		c4.063-10.456,8.918-17.918,16.756-25.756c7.838-7.838,15.3-12.693,25.756-16.756c7.893-3.068,19.754-6.716,41.593-7.713
		C157.105,40.588,164.189,40.36,224,40.36 M224,0c-60.835,0-68.463,0.258-92.355,1.348C107.803,2.436,91.52,6.222,77.271,11.76
		c-14.73,5.724-27.222,13.384-39.675,25.836C25.143,50.049,17.484,62.541,11.76,77.271C6.222,91.52,2.436,107.803,1.348,131.645
		C0.258,155.537,0,163.165,0,224c0,60.835,0.258,68.463,1.348,92.355c1.088,23.843,4.875,40.125,10.412,54.374
		c5.724,14.73,13.384,27.222,25.836,39.675c12.453,12.453,24.945,20.112,39.675,25.836c14.249,5.537,30.531,9.324,54.374,10.412
		C155.537,447.743,163.165,448,224,448s68.463-0.257,92.355-1.348c23.843-1.088,40.125-4.875,54.374-10.412
		c14.73-5.724,27.222-13.384,39.675-25.836c12.453-12.453,20.112-24.945,25.836-39.675c5.537-14.249,9.324-30.531,10.412-54.374
		C447.742,292.463,448,284.835,448,224s-0.258-68.463-1.348-92.355c-1.088-23.843-4.875-40.125-10.412-54.374
		c-5.724-14.73-13.384-27.222-25.836-39.675c-12.453-12.453-24.945-20.112-39.675-25.836c-14.249-5.537-30.531-9.324-54.374-10.412
		C292.463,0.258,284.835,0,224,0L224,0z"/>
	<path fill="#010101" d="M224,108.973c-63.528,0-115.027,51.499-115.027,115.027S160.472,339.027,224,339.027
		S339.027,287.528,339.027,224S287.528,108.973,224,108.973z M224,298.667c-41.237,0-74.667-33.429-74.667-74.667
		s33.429-74.667,74.667-74.667s74.667,33.429,74.667,74.667S265.237,298.667,224,298.667z"/>
	<circle fill="#010101" cx="343.572" cy="104.428" r="26.88"/>
</g>
</svg>
