<?xml version="1.0" encoding="utf-8"?>
<!-- Generator: Adobe Illustrator 19.2.1, SVG Export Plug-In . SVG Version: 6.00 Build 0)  -->
<svg version="1.1" baseProfile="tiny" id="Layer_1" xmlns="http://www.w3.org/2000/svg" xmlns:xlink="http://www.w3.org/1999/xlink"
	 x="0px" y="0px" viewBox="0 0 512 512" xml:space="preserve">
<path d="M310.483,304.713h-59.72c-3.296,0-5.976-2.686-5.976-5.995v-149.86c0-3.321,2.68-6.001,5.976-6.001h55.361
	c41.538,0,50.262,24.444,50.262,44.964c0,11.864-3.153,21.291-9.402,28.206c15.222,6.287,23.443,20.446,23.443,40.947
	C370.427,286.873,348.017,304.713,310.483,304.713 M223.782,304.713h-0.019H99.778c-3.302,0-5.969-2.686-5.969-5.995v-149.86
	c0-3.321,2.668-6.001,5.969-6.001h57.936c36.178,0,57.774,19.482,57.774,52.115c0,21.714-10.919,38.765-28.498,45.686l41.258,54.086
	c0.933,1.057,1.505,2.45,1.505,3.973C229.752,302.027,227.072,304.713,223.782,304.713 M224.006,0C100.288,0,0,100.288,0,223.988
	C0,347.706,100.288,448,224.006,448C347.706,448,448,347.706,448,223.988C448,100.288,347.706,0,224.006,0"/>
</svg>
