<?xml version="1.0" encoding="utf-8"?>
<!-- Generator: Adobe Illustrator 19.2.1, SVG Export Plug-In . SVG Version: 6.00 Build 0)  -->
<svg version="1.1" baseProfile="tiny" id="Layer_1" xmlns="http://www.w3.org/2000/svg" xmlns:xlink="http://www.w3.org/1999/xlink"
	 x="0px" y="0px" viewBox="0 0 512 512" xml:space="preserve">
<path d="M219.171,448c44.827,0,89.244-15.96,103.937-35.296l2.943-3.875l-27.786-82.36c-0.257-0.762-0.972-1.275-1.776-1.275h-5.243
	h-2.379l-54.455,0c-0.84,0-1.6-0.536-1.814-1.348c-0.723-2.747-1.155-6.105-1.222-10.254V212.862c0-1.035,0.839-1.874,1.874-1.874
	h73.035c1.035,0,1.874-0.839,1.874-1.874V106.065c0-1.035-0.839-1.874-1.874-1.874h-72.722c-1.035,0-1.874-0.839-1.874-1.874V1.874
	c0-1.035-0.839-1.874-1.874-1.874h-56.884h-19.884h-50.766c-9.12,0-19.644,6.764-21.183,19.302
	C74.732,71.15,50.953,102.256,6.267,117.19l-4.986,1.664C0.516,119.11,0,119.825,0,120.632v88.482c0,1.035,0.839,1.874,1.874,1.874
	h34.715h0h10.924c0,0,0,82.592,0,108.979C47.513,406.963,107.768,448,219.171,448z M304.591,405.953
	c-13.989,13.45-42.7,23.443-70.217,23.908c-1.039,0.018-2.058,0.027-3.082,0.027h-0.009
	c-90.508-0.004-114.657-69.095-114.657-109.92V194.515c0-1.035-0.839-1.874-1.874-1.874H70.988c-1.035,0-1.874-0.839-1.874-1.874
	v-57.149c0-0.764,0.478-1.445,1.191-1.723c46.776-18.209,72.898-54.39,79.77-110.353c0.383-3.109,2.947-3.194,2.974-3.194h58.421
	c1.035,0,1.874,0.839,1.874,1.874v100.442c0,1.035,0.839,1.874,1.874,1.874h72.722c1.035,0,1.874,0.839,1.874,1.874v66.354
	c0,1.035-0.839,1.874-1.874,1.874h-73.035c-1.035,0-1.874,0.839-1.874,1.874l0.002,119.226c0.43,26.845,13.423,40.453,38.617,40.453
	c10.152,0,21.779-2.361,32.395-6.417c0.992-0.379,2.087,0.126,2.426,1.132l18.578,55.072
	C305.283,404.676,305.119,405.445,304.591,405.953z"/>
</svg>
