<?xml version="1.0" encoding="utf-8"?>
<!-- Generator: Adobe Illustrator 19.2.1, SVG Export Plug-In . SVG Version: 6.00 Build 0)  -->
<svg version="1.1" baseProfile="tiny" id="Layer_1" xmlns="http://www.w3.org/2000/svg" xmlns:xlink="http://www.w3.org/1999/xlink"
	 x="0px" y="0px" viewBox="0 0 512 512" xml:space="preserve">
<path d="M551.263,53.033c-20.282,8.995-42.078,15.076-64.958,17.809C509.657,56.845,527.59,34.68,536.033,8.27
	c-21.852,12.961-46.056,22.373-71.819,27.446C443.584,13.735,414.191,0,381.663,0c-62.463,0-113.101,50.638-113.101,113.096
	c0,8.865,1,17.496,2.928,25.774C177.494,134.153,94.158,89.127,38.377,20.702C28.641,37.406,23.065,56.833,23.065,77.56
	c0,39.237,19.967,73.855,50.313,94.137c-18.539-0.587-35.978-5.675-51.227-14.146c-0.008,0.473-0.01,0.945-0.01,1.422
	c0,54.798,38.985,100.51,90.724,110.899c-9.491,2.583-19.483,3.966-29.797,3.966c-7.288,0-14.373-0.709-21.279-2.028
	c14.392,44.932,56.16,77.631,105.65,78.545c-38.707,30.333-87.473,48.413-140.461,48.413c-9.129,0-18.132-0.536-26.979-1.579
	C50.052,429.277,109.5,448,173.369,448c208.03,0,321.787-172.335,321.787-321.79c0-4.903-0.11-9.781-0.327-14.631
	C516.925,95.633,536.1,75.713,551.263,53.033z"/>
</svg>
